<svg viewBox="0 0 101 28" xmlns="http://www.w3.org/2000/svg"><path d="M100.983 22.751a4.837 4.837 0 00-.248-1.071c-.22-.413-.413-.715-.607-.935-.083-.082-.193-.192-.386-.357-.138-.22-.22-.357-.303-.44l-.994-1.126c-.165-.192-.44-.494-.8-.907l-.22-.22a1.956 1.956 0 00-.193-.274c-.028-.083-.138-.193-.276-.358l-.331-.33c-.028-.027-.11-.137-.22-.274-.139-.138-.25-.248-.305-.33a6.465 6.465 0 00-.551-.632l-.166-.165c-.082-.11-.138-.192-.165-.22-.11-.11-.193-.22-.248-.302l-.387-.385c-.027-.082-.11-.165-.22-.274-.138-.138-.248-.248-.276-.33-.083-.083-.083-.22 0-.357l.386-.385c.138-.138.276-.247.386-.33l1.131-1.126c.083-.028.166-.11.303-.248.111-.137.194-.247.277-.275l.662-.66.358-.356c.083-.028.193-.138.331-.275l.276-.275a3.16 3.16 0 00.304-.385l.496-.467a5.68 5.68 0 00.552-.66 4.46 4.46 0 00.469-.961c.083-.11.138-.302.22-.577.028-.44.028-.907 0-1.401-.11-.633-.33-1.21-.69-1.704a5.305 5.305 0 01-.496-.605l-.8-.632a6.528 6.528 0 00-1.076-.384c-.193-.083-.469-.11-.883-.11-.137 0-.413.027-.854.11a5.561 5.561 0 00-.58.274c-.248.11-.524.248-.772.412-.193.193-.497.495-.91.935-.249.302-.442.55-.58.687a3.06 3.06 0 01-.441.467c-.193.22-.332.385-.442.495-.137.137-.33.384-.634.687-.083.11-.22.275-.442.494-.165.247-.33.467-.524.632l-.22.22c-.11.137-.194.247-.221.275-.083.11-.22.302-.414.55-.22.192-.386.356-.496.467l-.8.961c-.028.028-.11.083-.221.165-.028.083-.138.192-.276.33-.027.027-.083.11-.165.22-.083.11-.138.192-.166.22l-.304.302-.054.055s-.028-.028-.056-.11V8.627c0-1.209.028-2.17.056-2.857a6.39 6.39 0 00-.056-.797c-.027-.358-.165-.77-.386-1.292a4.212 4.212 0 00-.855-1.126 4.189 4.189 0 00-.773-.523h-.055c-.027-.027-.027-.054-.027-.054a1.027 1.027 0 00-.276-.165c-.11-.028-.387-.11-.828-.22-.027 0-.11-.028-.248-.055-.138-.028-.248-.055-.276-.055-.028 0-.083.027-.165.055h-.111c-.083 0-.386.027-.91.11a.736.736 0 00-.276.11.672.672 0 00-.276.11c-.083.027-.248.137-.469.274a1.07 1.07 0 01-.22.138c-.083.082-.138.137-.221.164a2.933 2.933 0 00-.635.66c-.082.11-.138.22-.22.302-.11.193-.193.358-.276.55 0 .028-.028.11-.056.22-.082.082-.11.137-.11.22-.083.247-.11.467-.11.687v3.05c.027.357.027.549 0 .549v2.886c0 .797.027 1.373.055 1.786v.412c-.028.22-.028.467 0 .77l-.055.466c0 .33.027.495.055.495 0 .192-.028.494-.055.907v2.692c0 .276.027.496.055.688 0 .247-.028.467-.055.66v3.571c.027.11.055.193.055.275.138.412.276.715.386.962a.53.53 0 00.11.22c.028.082.083.137.11.165.194.302.47.604.856.906.442.33.883.55 1.352.66.331.11.662.165 1.02.165a3.05 3.05 0 001.021-.165c.58-.138 1.131-.44 1.683-.907.359-.44.58-.77.69-.989.11-.165.248-.467.386-.907.083-.302.11-.604.11-.852v-.906c0-.303.028-1.1-.055-1.402V16.459c.028 0 .083.027.11.055l.055.055.47.632.496.66c.193.247.331.439.469.576 0 0 .138.193.441.605l.497.632.635.824c.027.028.082.11.165.193l.166.164c.027.028.33.44.91 1.237.193.247.497.632.91 1.127.138.22.386.549.745.961.193.248.497.632.938 1.127l.055.055c0 .027.083.137.248.33l.166.164c.138.303.248.44.386.468.359.33.8.577 1.352.77.11.026.359.109.745.22.469 0 .827-.029 1.075-.056.359-.082.745-.193 1.132-.33l.22-.11c.304-.22.414-.247.552-.384.359-.303.552-.522.634-.632.304-.523.47-.852.497-.962.055-.138.11-.357.193-.66.083-.412.083-.907.055-1.429zM68.377 9.754a2.332 2.332 0 00-.331-.742c-.359-.302-.663-.44-.91-.44h-.166a9.826 9.826 0 00-1.076-.054h-.855c-.359-.028-.635-.056-.8-.056-.083.028-.11.083-.11.11V11.457c.027.083.054.11.054.11h2.952c0 .028.055.056.166.056l.11-.055c.386-.193.662-.44.8-.687.193-.357.248-.742.166-1.127zm7.282 12.997c.028.193.056.44.056.742 0 .33-.083.715-.221 1.182-.083.22-.166.412-.276.577a3.22 3.22 0 01-.386.66c-.359.357-.635.604-.856.742l-.469.33c-.441.192-.69.274-.717.274-.358.082-.606.082-.8.055a3.08 3.08 0 01-.8-.11 8.376 8.376 0 01-1.296-.77l-.221-.192a7.85 7.85 0 01-.551-.604c-.056-.11-.331-.55-.8-1.292-.139-.247-.304-.522-.47-.852-.027-.027-.082-.137-.165-.274-.083-.138-.138-.248-.166-.275-.027-.028-.193-.275-.441-.687a7.594 7.594 0 00-.414-.687 3.472 3.472 0 01-.276-.495c-.137-.192-.248-.33-.275-.44a6.069 6.069 0 01-.58-1.016 5.588 5.588 0 01-.442-.632 3.435 3.435 0 00-.33-.605c-.028-.082-.083-.165-.166-.302-.082-.11-.11-.192-.138-.275a.672.672 0 01-.11-.275c-.083-.11-.11-.192-.11-.22l-.11-.11a.207.207 0 01-.111.056v.054c.027.303.055.66.055 1.127v1.457c.028.302.055.66.055 1.126-.027 0-.055.083-.055.22l.055.22v1.649c0 .302-.027.521-.055.659a.55.55 0 01-.055.247c0 .028-.028.083-.055.165-.028.192-.083.303-.11.385-.139.412-.304.77-.497 1.072-.193.302-.552.632-1.02 1.017-.084.082-.221.164-.415.274-.193.083-.303.137-.386.165-.082 0-.193.027-.386.11-.138.028-.22.055-.304.055h-.551l-.745-.165a5.177 5.177 0 01-.552-.275c-.11-.027-.413-.22-.91-.577a3.69 3.69 0 01-.442-.604 19.392 19.392 0 01-.358-.523c-.083-.22-.138-.384-.221-.494a.655.655 0 00-.11-.33c-.028-.11-.055-.192-.055-.275 0-.137-.028-.22-.055-.302V14.425c.027 0 .027-.137 0-.384V5.632c0-.357.027-.632.055-.824.082-.467.193-.88.33-1.237.083-.11.139-.247.221-.412.083-.11.221-.302.414-.604.248-.275.552-.495.91-.687.304-.193.718-.303 1.242-.385a8.9 8.9 0 01.993-.055h1.214c.11.028.193.055.22.055.221 0 .387-.027.497-.055h.165c.083.028.139.055.166.055 0-.027.22-.055.635-.055l.634.055c0-.027.083-.055.276-.055l.33.055h2.842c.414 0 .69.027.883.055.138.082.442.11.524.11.028 0 .11.027.22.054.194.028.304.083.387.11.166.028.414.138.745.275.414.138.717.275.91.413.359.192.662.357.883.549.193.193.359.302.47.357l.385.385c.194.247.441.577.745.962.083.082.22.302.22.384.194.248.332.495.442.742.138.44.221.687.248.77.138.412.249.742.276.962.028.11.056.247.056.412.082.22.11.357.11.44 0 .11.027.247.055.384.027.193.055.33.055.413v.33c.028.136.055.246.055.33v.85a1.027 1.027 0 00-.055.33c-.028.138-.055.248-.055.303l-.165.989c-.028.082-.083.165-.111.302-.083.193-.138.302-.165.385-.083.302-.138.495-.221.604l-.248.522-.331.495c0 .028-.028.082-.11.138-.083.082-.111.137-.111.164-.138.193-.303.358-.469.55l-.497.467c-.359.302-.606.495-.745.605-.027.11-.055.192-.055.22a.425.425 0 00.11.164c.084.083.139.193.194.358.193.247.303.44.386.55.082.136.22.33.441.576.166.302.276.522.359.66.027.082.138.164.276.302.11.192.193.302.22.384.304.44.497.77.635 1.017.138.138.303.412.442.825.082.164.137.384.22.632 0 .22.028.357.055.44zm-62.942-4.423c-.082-.193-.137-.33-.22-.413-.193-.247-.414-.412-.635-.44H11.2a11.492 11.492 0 00-1.13-.054 6.543 6.543 0 00-.911-.055H8.028a.212.212 0 01-.11.055v2.253l.11.11h1.021c.082.027.193.054.33.054h2.097c.193.028.359 0 .552-.11.358-.302.552-.549.634-.741.083-.302.083-.522.055-.66zm-4.8-7.997c.028.11.056.193.056.22l.11.11H9.6c.304 0 .552-.028.69-.11.22-.192.359-.302.441-.357l.11-.055c.11-.248.166-.495.166-.715a.952.952 0 00-.276-.577l-.055-.055a1.285 1.285 0 00-.855-.33h-.552c-.22-.027-.386-.055-.469-.055h-.772l-.055.055c-.028.083-.055.11-.055.11v1.759zm12.607 8.216c.028.192.056.385.056.605v.742c-.083.137-.11.467-.11.604v.247c-.084.22-.111.385-.111.495a.616.616 0 01-.083.275c-.027.137-.055.22-.055.247-.082.138-.193.467-.386.935-.304.522-.58.961-.856 1.318-.441.523-.772.88-1.02 1.1-.524.357-.883.604-1.131.741-.414.22-.773.385-1.104.522-.744.22-1.269.358-1.544.385-.442.083-.773.11-1.02.11-.608 0-1.077-.027-1.408-.055h-1.296c-.608 0-1.076-.027-1.407-.055H3.725a1.32 1.32 0 01-.552-.11 3.675 3.675 0 01-1.435-.686 7.729 7.729 0 01-.607-.55 8.712 8.712 0 00-.414-.522c-.027-.11-.11-.247-.22-.44-.138-.302-.248-.495-.276-.632 0-.082-.028-.193-.11-.384-.028-.193-.056-.303-.056-.385 0-.083-.027-.22-.055-.412v-.66c.028-.138.055-.247.055-.275v-7.611c.028 0 .056-.138.056-.385L.055 13.3V8.902c.028-.137.056-.247.056-.33v-.44c-.028-.164-.056-.274-.056-.356V5.137c0-.247.028-.44.056-.549.027-.082.082-.22.11-.412.083-.22.138-.385.165-.495.249-.412.386-.66.47-.742.193-.247.468-.55.882-.852.11-.11.221-.192.359-.22.22-.137.469-.247.717-.329a.847.847 0 01.304-.055c.11-.083.193-.11.275-.11h.332c.137-.028.248-.055.33-.055.248.027.58.055 1.021.055.497 0 .883.027 1.131.055h2.041c.193.028.387.055.58.055h1.683c.138 0 .33.027.551.055.193.027.359.055.47.055.082 0 .165.027.275.11.138.027.249.055.276.055.303.082.552.137.745.22.193.027.441.137.745.274.441.192.744.357.938.467.276.138.469.248.579.33.22.137.441.302.69.467.083.083.193.192.386.33l.33.33.58.742c.028.082.166.247.387.55.192.274.33.549.44.85.056.22.166.523.304.908.083.22.11.412.11.55 0 .027.028.11.056.247.027.11.055.192.055.22v.439c.028.22.055.385.055.467 0 .358-.027.633-.055.825 0 .302-.055.632-.166.962-.027.082-.082.22-.11.44-.083.192-.11.33-.11.411-.028.083-.055.138-.083.22-.028.138-.138.33-.276.577-.138.303-.276.495-.386.605l-.055.055v.055c0 .137.027.247.11.275.469.357.69.522.69.522.303.22.496.384.607.494.082.083.138.165.22.248l.276.274c.138.192.249.358.359.55.193.302.358.66.551 1.017l.304.796c0 .083.027.193.055.385.083.303.11.55.11.687zm30.498-6.255c-1.608-.968-4.023.002-5.395 2.168-1.371 2.165-1.18 4.707.427 5.676 1.608.969 4.023-.001 5.395-2.167 1.372-2.167 1.18-4.707-.427-5.677zm-8.938 4.713c-.428-1-.846-2.004-1.265-3.004a6.054 6.054 0 00-1.338-1.958 3.076 3.076 0 00-3.412-.47 7.403 7.403 0 00-1.924 1.41c-1.593 1.454-3.326 2.675-5.496 3.187-2.17.511-3.335 2.54-3.368 4.328-.072 1.564.736 3.04 2.107 3.854a6.63 6.63 0 002.637 1.033 50.481 50.481 0 018.142 2.037l1.69.53c.48.024.822.052 1.174.048a7.556 7.556 0 001.025-.076c1.84-.208 3.268-1.666 3.397-3.47a5.128 5.128 0 00-.962-3.5 20.914 20.914 0 01-2.407-3.949zm.233-5.206c1.847.88 4.353-.424 5.598-2.912 1.246-2.489.76-5.218-1.087-6.098-1.846-.88-4.352.425-5.597 2.912-1.246 2.489-.76 5.218 1.086 6.098zm-7.862-1.79c2.05.14 3.871-1.986 4.07-4.748.197-2.762-1.304-5.115-3.353-5.254-2.05-.14-3.87 1.985-4.07 4.748-.197 2.762 1.304 5.114 3.353 5.254zm-7.498 5.404c-1.889.057-3.485-1.96-3.566-4.505-.08-2.544 1.385-4.653 3.274-4.71 1.889-.057 3.485 1.96 3.566 4.504.08 2.545-1.386 4.654-3.274 4.711z" fill="#000" fill-rule="evenodd"/></svg>