<svg viewBox="0 0 44 31" xmlns="http://www.w3.org/2000/svg"><g fill="none" fill-rule="evenodd"><path d="M.33 1.98v26.4c0 .907.743 1.65 1.655 1.65h39.59c.913 0 1.655-.74 1.655-1.65V1.98c0-.907-.743-1.65-1.655-1.65H1.985C1.072.33.33 1.07.33 1.98z" stroke="#E6E7E8" stroke-width=".66" fill="#FFF"/><path d="M18.772 7.92h4.504c1.268 0 2.773.041 3.779.929.672.593 1.025 1.538.944 2.552-.277 3.439-2.334 5.365-5.092 5.365h-2.222c-.378 0-.628.25-.735.93l-.62 3.942c-.04.256-.15.407-.353.425h-2.775c-.308 0-.417-.236-.336-.746l1.997-12.649c.08-.507.358-.748.909-.748" fill="#1B3D92"/><path d="M21.668 11.88h4.5c2.415 0 3.325 1.223 3.184 3.022-.231 2.967-2.025 4.607-4.404 4.607h-1.2c-.327 0-.546.215-.635.801l-.515 3.4c-.034.221-.15.351-.324.367h-2.822c-.265 0-.36-.203-.29-.643l1.723-10.909c.069-.437.308-.645.783-.645" fill="#00A2D3"/><path d="M19.8 17.503l.786-4.978c.07-.437.309-.645.784-.645h4.5c.744 0 1.346.116 1.817.33-.452 3.061-2.431 4.762-5.024 4.762h-2.221c-.292 0-.51.15-.642.531" fill="#1B2E7F"/></g></svg>