<svg viewBox="0 0 44 31" xmlns="http://www.w3.org/2000/svg"><g fill="none" fill-rule="evenodd"><path d="M.33 1.98v26.4c0 .907.743 1.65 1.655 1.65h39.59c.913 0 1.655-.74 1.655-1.65V1.98c0-.907-.743-1.65-1.655-1.65H1.985C1.072.33.33 1.07.33 1.98z" stroke="#E6E7E8" stroke-width=".66" fill="#FFF"/><g fill="#0742A6"><path d="M19.815 19.631h-2.336l1.46-8.8h2.337zM28.284 11.047a5.893 5.893 0 00-2.096-.375c-2.307 0-3.931 1.198-3.941 2.911-.02 1.264 1.163 1.966 2.047 2.388.904.43 1.211.711 1.211 1.095-.009.59-.73.861-1.403.861-.932 0-1.432-.14-2.192-.468l-.307-.14-.327 1.975c.548.243 1.557.459 2.605.468 2.452 0 4.047-1.18 4.066-3.005.01-1.002-.615-1.769-1.96-2.396-.818-.403-1.318-.674-1.318-1.086.01-.375.423-.758 1.345-.758a4.06 4.06 0 011.74.337l.212.093.318-1.9z"/><path d="M31.389 16.514l.932-2.462c-.01.019.192-.515.308-.843l.163.759s.442 2.106.539 2.546h-1.942zm2.883-5.682h-1.807c-.557 0-.98.159-1.22.73l-3.47 8.069h2.45l.49-1.32h3c.067.309.28 1.32.28 1.32h2.162l-1.885-8.8z" fill-rule="nonzero"/><path d="M15.527 10.832l-2.288 6-.25-1.217c-.423-1.404-1.75-2.93-3.23-3.688l2.096 7.695h2.47l3.673-8.79h-2.47z"/><path d="M11.115 10.832H7.356l-.038.178c2.932.73 4.874 2.49 5.671 4.606l-.817-4.045c-.134-.561-.548-.72-1.057-.74z"/></g></g></svg>