<svg viewBox="0 0 44 31" xmlns="http://www.w3.org/2000/svg"><g fill="none" fill-rule="evenodd"><path d="M.33 1.98v26.4c0 .907.743 1.65 1.655 1.65h39.59c.913 0 1.655-.74 1.655-1.65V1.98c0-.907-.743-1.65-1.655-1.65H1.985C1.072.33.33 1.07.33 1.98z" stroke="#E6E7E8" stroke-width=".66" fill="#FFF"/><path d="M20.744 15.322v3.216h-1.053v-7.941h2.793a2.57 2.57 0 011.808.687 2.18 2.18 0 01.755 1.676 2.169 2.169 0 01-.755 1.686c-.488.45-1.091.676-1.808.676h-1.74zm0-3.747v2.772h1.766c.391.01.77-.138 1.042-.411.27-.255.423-.605.423-.97 0-.366-.153-.716-.423-.97a1.395 1.395 0 00-1.042-.422h-1.766zM27.473 12.927c.779 0 1.393.202 1.843.605.45.403.676.955.675 1.657v3.349h-1.007v-.754h-.046c-.436.62-1.016.931-1.74.931-.617 0-1.134-.177-1.55-.532a1.677 1.677 0 01-.624-1.33c0-.563.22-1.01.658-1.342.439-.332 1.024-.498 1.757-.5.625 0 1.14.112 1.544.334v-.234a1.147 1.147 0 00-.434-.903 1.519 1.519 0 00-1.017-.371c-.588 0-1.053.24-1.396.72l-.927-.565c.51-.71 1.265-1.065 2.264-1.065zm-1.362 3.948a.807.807 0 00.35.665c.232.177.521.271.818.266.444 0 .87-.172 1.184-.476.349-.318.523-.692.523-1.12-.328-.253-.786-.38-1.373-.38-.428 0-.785.1-1.07.3-.289.202-.432.449-.432.745z" fill="#5F6368" fill-rule="nonzero"/><path fill="#5F6368" d="M35.772 13.105l-3.516 7.828H31.17l1.304-2.74-2.312-5.088h1.145l1.67 3.903h.024l1.625-3.903z"/><path d="M16.49 14.63c0-.312-.027-.622-.081-.928h-4.44v1.757h2.543a2.109 2.109 0 01-.94 1.386v1.14h1.517c.889-.794 1.4-1.968 1.4-3.356z" fill="#4285F4"/><path d="M11.968 19.087c1.271 0 2.34-.404 3.121-1.101l-1.518-1.14c-.422.277-.966.435-1.603.435a2.808 2.808 0 01-2.643-1.883H7.762v1.176c.799 1.54 2.427 2.513 4.206 2.513z" fill="#34A853"/><path d="M9.325 15.398a2.653 2.653 0 010-1.746v-1.175H7.762a4.435 4.435 0 000 4.097l1.563-1.176z" fill="#FBBC04"/><path d="M11.968 11.77c.672-.012 1.32.234 1.807.683l1.343-1.302a4.605 4.605 0 00-3.15-1.188c-1.78 0-3.407.973-4.206 2.514l1.563 1.175a2.808 2.808 0 012.643-1.883z" fill="#EA4335"/></g></svg>