<svg viewBox="0 0 44 31" xmlns="http://www.w3.org/2000/svg"><g fill="none" fill-rule="evenodd"><path d="M.33 1.98v26.4c0 .907.743 1.65 1.655 1.65h39.59c.913 0 1.655-.74 1.655-1.65V1.98c0-.907-.743-1.65-1.655-1.65H1.985C1.072.33.33 1.07.33 1.98z" stroke="#E6E7E8" stroke-width=".66" fill="#FFF"/><path fill="#FF5F00" d="M18.254 9.586h6.932v11.166h-6.932z"/><path d="M18.968 15.17a7.054 7.054 0 012.75-5.582c-2.952-2.288-7.191-1.955-9.739.766a7.029 7.029 0 000 9.634c2.548 2.72 6.787 3.054 9.739.766a7.054 7.054 0 01-2.75-5.584z" fill="#EB001B"/><path d="M32.694 19.854v-.464h.11v-.096h-.262v.096h.103v.464h.049zm.508 0v-.56h-.08l-.092.4-.092-.4h-.08v.56h.058v-.424l.086.364h.06l.085-.364v.424h.055z" fill="#F79E1B" fill-rule="nonzero"/><path d="M33.368 15.17c0 2.719-1.574 5.199-4.054 6.387a7.282 7.282 0 01-7.596-.805 7.065 7.065 0 002.751-5.583 7.065 7.065 0 00-2.751-5.583 7.282 7.282 0 017.596-.804c2.48 1.188 4.054 3.668 4.054 6.386v.002z" fill="#F79E1B"/></g></svg>