<svg viewBox="0 0 44 31" xmlns="http://www.w3.org/2000/svg"><g fill="none" fill-rule="evenodd"><path d="M.33 1.98v26.4c0 .907.743 1.65 1.655 1.65h39.59c.913 0 1.655-.74 1.655-1.65V1.98c0-.907-.743-1.65-1.655-1.65H1.985C1.072.33.33 1.07.33 1.98z" stroke="#E6E7E8" stroke-width=".66" fill="#FFF"/><path fill="#7673C0" d="M18.825 9.588h5.99v10.876h-5.99z"/><path d="M19.207 15.025a6.931 6.931 0 012.615-5.437 6.796 6.796 0 00-9.26.745 6.969 6.969 0 000 9.385 6.796 6.796 0 009.26.746 6.931 6.931 0 01-2.615-5.44z" fill="#EB001B"/><path d="M32.245 19.574v-.44h.09v-.092h-.227v.091h.09v.441h.047zm.44 0v-.532h-.07l-.079.38-.08-.38h-.07v.532h.05v-.399l.073.346h.052l.074-.346v.403l.05-.004z" fill="#00A1DF" fill-rule="nonzero"/><path d="M32.897 15.025a6.923 6.923 0 01-3.854 6.22 6.79 6.79 0 01-7.223-.783 6.943 6.943 0 002.616-5.438 6.943 6.943 0 00-2.616-5.438 6.79 6.79 0 017.224-.784 6.923 6.923 0 013.853 6.223z" fill="#00A1DF"/></g></svg>