<svg viewBox="0 0 44 31" xmlns="http://www.w3.org/2000/svg"><g fill="none" fill-rule="evenodd"><path d="M.33 1.98v26.4c0 .907.743 1.65 1.655 1.65h39.59c.913 0 1.655-.74 1.655-1.65V1.98c0-.907-.743-1.65-1.655-1.65H1.985C1.072.33.33 1.07.33 1.98z" stroke="#E6E7E8" stroke-width=".66" fill="#FFF"/><path d="M13.061 18.353h1.469V11.22H13.06v7.133zm9.3-4.118v-.633h-1.383v4.764h1.383V15.87c0-.722.783-1.039 1.334-.887h.012v-1.381c-.563-.013-1.077.24-1.346.633zm-4.723 3.016c-.722 0-1.297-.57-1.297-1.28 0-.71.587-1.28 1.297-1.28.722 0 1.297.57 1.297 1.28 0 .71-.588 1.28-1.297 1.28zm1.285-3.332a2.348 2.348 0 00-1.408-.456c-1.346 0-2.423 1.127-2.423 2.508s1.09 2.509 2.423 2.509c.527 0 1.004-.177 1.408-.456v.33h1.199v-4.765h-1.2v.33zm8.235-.456c-.55 0-1.077.177-1.42.659v-.533h-1.382v4.764h1.383v-2.61c0-.722.465-1.077 1.04-1.077.6 0 .954.38.954 1.065v2.61h1.383v-3.029c0-1.09-.857-1.85-1.958-1.85zm8.933 3.205c-.477 0-.869.406-.869.9s.392.9.87.9c.476 0 .868-.406.868-.9 0-.507-.392-.9-.869-.9zm-3.952.583c-.722 0-1.297-.57-1.297-1.28 0-.71.587-1.28 1.297-1.28.722 0 1.297.57 1.297 1.28.012.71-.575 1.28-1.297 1.28zm1.297-3.332a2.348 2.348 0 00-1.407-.456c-1.347 0-2.423 1.127-2.423 2.508s1.089 2.509 2.423 2.509c.526 0 1.003-.177 1.407-.456v.33h1.199v-4.765h-1.2v.33zm2.068-.241h.061c.037 0 .061.028.061.055 0 .041-.012.055-.061.055h-.061v-.11zm0 .165h.061l.061.14h.061l-.06-.14c.036-.013.06-.051.06-.102 0-.063-.049-.114-.122-.114h-.122v.355h.06v-.14zM6.6 18.353h1.53V11.22H6.6v7.133zm5.458-7.133h-1.48c-.025 1.61-.931 3.003-2.228 3.687l2.288 3.446h1.86l-2.08-3.13c1.028-1.05 1.615-2.47 1.64-4.003zm23.495 2.306c.147 0 .269.127.269.279a.277.277 0 01-.27.279.277.277 0 01-.268-.28c0-.151.122-.278.269-.278zm0 .62c.183 0 .33-.151.33-.341a.335.335 0 00-.33-.342.335.335 0 00-.33.342c0 .19.146.342.33.342z" fill="#EB6F93" fill-rule="nonzero"/></g></svg>