<svg viewBox="0 0 44 31" xmlns="http://www.w3.org/2000/svg"><g fill="none" fill-rule="evenodd"><path d="M.33 1.98v26.4c0 .907.743 1.65 1.655 1.65h39.59c.913 0 1.655-.74 1.655-1.65V1.98c0-.907-.743-1.65-1.655-1.65H1.985C1.072.33.33 1.07.33 1.98z" stroke="#E6E7E8" stroke-width=".66" fill="#FFF"/><path d="M11.196 11.22l2.473 6.142V11.22h2.577l1.945 4.632 1.92-4.632h2.576v7.26H20.96v-4.806l-1.97 4.806h-1.56l-2.15-5.242v5.242h-3.208l-.618-1.612H8.439l-.58 1.612H5.94l2.808-7.26h2.448zm19.877 0l1.79 2.178 1.83-2.178h2.267l-2.976 3.63 2.976 3.63h-2.267l-1.855-2.294-1.907 2.294h-6.956v-7.26h7.098zm-1.842.566v1.09h-3.594v1.146h3.594v1.641h-3.594v1.147h3.594v.944l2.486-2.904-2.486-3.064zM9.908 12.803l-.863 2.41h1.777l-.914-2.41z" fill="#016FD0" fill-rule="nonzero"/></g></svg>