<svg viewBox="0 0 44 31" xmlns="http://www.w3.org/2000/svg"><g fill="none" fill-rule="evenodd"><path d="M.33 1.98v26.4c0 .907.743 1.65 1.655 1.65h39.59c.913 0 1.655-.74 1.655-1.65V1.98c0-.907-.743-1.65-1.655-1.65H1.985C1.072.33.33 1.07.33 1.98z" stroke="#E6E7E8" stroke-width=".66" fill="#FFF"/><path d="M13.358 11.299c-.306.366-.796.655-1.286.614-.062-.496.178-1.022.459-1.347.306-.377.842-.645 1.276-.666.051.516-.148 1.022-.449 1.399zm.444.712c-.71-.041-1.317.408-1.654.408-.342 0-.857-.387-1.419-.377-.73.01-1.409.428-1.781 1.094-.766 1.332-.2 3.303.54 4.387.363.537.797 1.125 1.369 1.104.54-.02.755-.356 1.409-.356.658 0 .847.356 1.419.346.592-.01.964-.537 1.327-1.073.413-.61.582-1.203.592-1.234-.01-.01-1.143-.449-1.154-1.77-.01-1.105.894-1.631.935-1.662-.51-.764-1.307-.846-1.583-.867zm4.1-1.497v8.046h1.234v-2.75h1.71c1.563 0 2.66-1.084 2.66-2.653 0-1.57-1.077-2.643-2.619-2.643h-2.986zm1.234 1.053h1.425c1.072 0 1.684.578 1.684 1.595s-.612 1.6-1.69 1.6h-1.419v-3.195zm6.626 7.055c.776 0 1.496-.397 1.823-1.027h.025v.965h1.144v-4.005c0-1.16-.92-1.91-2.333-1.91-1.312 0-2.282.76-2.318 1.802h1.113c.092-.496.546-.82 1.17-.82.755 0 1.178.355 1.178 1.01v.445l-1.541.093c-1.435.087-2.21.681-2.21 1.713 0 1.043.8 1.734 1.95 1.734zm.332-.954c-.658 0-1.077-.32-1.077-.81 0-.507.403-.8 1.174-.847l1.373-.088v.454c0 .754-.633 1.29-1.47 1.29zm4.186 3.08c1.205 0 1.771-.464 2.267-1.873l2.169-6.152H33.46l-1.455 4.754h-.025l-1.455-4.754h-1.291l2.092 5.858-.112.356c-.189.604-.495.836-1.041.836-.097 0-.286-.01-.363-.02v.965c.072.02.378.03.47.03z" fill="#000" fill-rule="nonzero"/></g></svg>