<svg viewBox="0 0 460 374" xmlns="http://www.w3.org/2000/svg"><path d="M307.664 72.858c-19.024-15.286-37.907-30.769-56.74-46.157-13.858-11.213-29.878-19.585-47.145-24.664-27.15-6.815-56.109 3.82-72.597 26.671-10.358 14.748-18.246 31.032-23.338 48.179-16.258 45.608-37.758 88.037-75.402 121.051-37.65 33.006-39.383 85.443-21.216 121.214 15.051 31.728 46.632 52.467 82.39 54.109 21.246 2.135 42.815-.37 63.17-7.342A1135.023 1135.023 0 01339.7 320.433l39.082-7.297c9.79-4.607 16.857-7.658 23.778-11.446a169.884 169.884 0 0019.533-12.295c34.308-23.522 47.263-67.448 30.829-104.517-10.742-25.837-30.588-46.835-55.963-59.196-31.707-14.302-61.653-32.013-89.294-52.824z" fill="#FF5C00" fill-rule="evenodd"/></svg>