<svg viewBox="0 0 29 28" xmlns="http://www.w3.org/2000/svg"><path d="M16.106 12.043a6.054 6.054 0 011.34 1.958c.418 1 .837 2.004 1.266 3.004a20.911 20.911 0 002.408 3.948 5.125 5.125 0 01.963 3.502c-.13 1.803-1.558 3.261-3.4 3.47-.34.048-.683.073-1.026.075-.293.003-.58-.016-.945-.035l-.23-.012-1.69-.531a50.555 50.555 0 00-8.15-2.037 6.639 6.639 0 01-2.638-1.033c-1.373-.813-2.181-2.29-2.11-3.854.034-1.789 1.2-3.817 3.372-4.328 2.172-.512 3.905-1.733 5.5-3.188a7.408 7.408 0 011.926-1.408 3.08 3.08 0 013.414.469zm11.55.25c1.609.969 1.8 3.51.427 5.676-1.373 2.166-3.79 3.136-5.398 2.167-1.61-.97-1.8-3.51-.428-5.676 1.373-2.166 3.79-3.136 5.4-2.168zM6.85 10.702c.08 2.544-1.387 4.653-3.277 4.71-1.89.057-3.488-1.96-3.569-4.505-.08-2.544 1.387-4.653 3.277-4.71 1.89-.057 3.488 1.96 3.569 4.504zm16.61-7.914c1.848.88 2.335 3.61 1.088 6.098-1.246 2.488-3.754 3.792-5.602 2.912-1.848-.88-2.335-3.61-1.088-6.098 1.247-2.487 3.755-3.792 5.602-2.912zM11.794.007c2.05.139 3.553 2.492 3.355 5.254-.199 2.762-2.022 4.888-4.073 4.748-2.05-.14-3.553-2.492-3.355-5.254.187-2.6 1.813-4.636 3.713-4.75l.18-.005z" fill="#FF5C00" fill-rule="evenodd"/></svg>