<svg viewBox="0 0 19 16" xmlns="http://www.w3.org/2000/svg"><path d="M19 1.894a7.578 7.578 0 01-2.239.636A4.03 4.03 0 0018.475.295a7.64 7.64 0 01-2.475.98A3.83 3.83 0 0013.154 0c-2.152 0-3.898 1.808-3.898 4.04 0 .316.035.624.101.92C6.117 4.79 3.245 3.183 1.323.74a4.132 4.132 0 00-.528 2.03c0 1.401.688 2.638 1.734 3.362a3.78 3.78 0 01-1.765-.505v.05c0 1.958 1.343 3.59 3.126 3.961a3.774 3.774 0 01-1.76.07c.496 1.604 1.935 2.772 3.641 2.804A7.65 7.65 0 010 14.185 10.756 10.756 0 005.975 16c7.17 0 11.091-6.155 11.091-11.493 0-.175-.004-.349-.011-.522A8.086 8.086 0 0019 1.894" fill="#000" fill-rule="evenodd"/></svg>