<svg viewBox="0 0 16 16" xmlns="http://www.w3.org/2000/svg"><path d="M6.867 0h2.266c1.178.004 1.49.016 2.165.047.852.04 1.433.174 1.942.372.526.205.972.478 1.417.923.445.445.719.89.923 1.417.198.509.333 1.09.372 1.942C15.99 5.554 16 5.827 16 8c0 2.172-.01 2.445-.048 3.298-.039.852-.174 1.433-.372 1.942a3.922 3.922 0 01-.923 1.417c-.445.445-.89.719-1.417.923-.509.198-1.09.333-1.942.372C10.445 15.99 10.172 16 8 16c-2.173 0-2.446-.01-3.299-.048-.852-.039-1.433-.174-1.942-.372a3.921 3.921 0 01-1.417-.923 3.922 3.922 0 01-.923-1.417c-.198-.509-.333-1.09-.372-1.942-.03-.675-.043-.987-.046-2.165V6.867C.004 5.688.016 5.377.047 4.7c.04-.852.174-1.433.372-1.942.205-.526.478-.972.923-1.417.445-.445.89-.718 1.417-.923.509-.198 1.09-.333 1.942-.372.676-.03.987-.043 2.166-.046h2.266zm1.629 1.44h-.993c-1.686.002-1.963.012-2.736.047-.78.036-1.204.166-1.486.276a2.48 2.48 0 00-.92.598 2.48 2.48 0 00-.598.92c-.11.282-.24.706-.276 1.486-.035.773-.045 1.05-.046 2.736v.993c.001 1.686.011 1.963.046 2.736.036.78.166 1.204.276 1.486.145.373.318.64.598.92.28.28.547.453.92.598.282.11.706.24 1.486.276.738.033 1.024.044 2.515.046h1.435c1.491-.002 1.777-.013 2.515-.046.78-.036 1.204-.166 1.486-.276.373-.145.64-.318.92-.598.28-.28.453-.547.598-.92.11-.282.24-.706.276-1.486.033-.738.044-1.024.046-2.515V7.282c-.002-1.491-.013-1.777-.046-2.515-.036-.78-.166-1.204-.276-1.486a2.479 2.479 0 00-.598-.92 2.48 2.48 0 00-.92-.598c-.282-.11-.706-.24-1.486-.276-.773-.035-1.05-.045-2.736-.046zM8 3.892a4.108 4.108 0 110 8.217A4.108 4.108 0 018 3.89zm0 1.442a2.667 2.667 0 100 5.333 2.667 2.667 0 000-5.333zm4.27-2.564a.96.96 0 110 1.92.96.96 0 010-1.92z" fill="#000" fill-rule="evenodd"/></svg>